<mxfile host="65bd71144e">
    <diagram id="8AQlfNjkcH1g4LnfkPKo" name="Page-1">
        <mxGraphModel dx="3749" dy="1585" grid="0" gridSize="10" guides="1" tooltips="1" connect="1" arrows="1" fold="1" page="1" pageScale="1" pageWidth="850" pageHeight="1100" background="#ffffff" math="0" shadow="0">
            <root>
                <mxCell id="0"/>
                <mxCell id="1" parent="0"/>
                <mxCell id="79" style="edgeStyle=none;html=1;exitX=0.5;exitY=0;exitDx=0;exitDy=0;strokeColor=#006EAF;strokeWidth=3;fontColor=#1A1A1A;fillColor=#1ba1e2;" parent="1" source="65" edge="1">
                    <mxGeometry relative="1" as="geometry">
                        <mxPoint x="366.7376174926758" y="1267.612696329753" as="targetPoint"/>
                    </mxGeometry>
                </mxCell>
                <mxCell id="65" value="" style="rounded=0;whiteSpace=wrap;html=1;labelBackgroundColor=#FFFFFF;strokeColor=#787373;strokeWidth=2;fontSize=15;fontColor=#000000;fillColor=#FFFFFF;" parent="1" vertex="1">
                    <mxGeometry x="-97" y="1352" width="500" height="440" as="geometry"/>
                </mxCell>
                <mxCell id="64" value="FARMER SECTION" style="text;html=1;strokeColor=none;fillColor=none;align=center;verticalAlign=middle;whiteSpace=wrap;rounded=0;labelBackgroundColor=#FFFFFF;strokeWidth=2;fontSize=15;fontColor=#000000;fontStyle=1" parent="1" vertex="1">
                    <mxGeometry x="-20" y="-350" width="170" height="30" as="geometry"/>
                </mxCell>
                <mxCell id="63" value="" style="rounded=0;whiteSpace=wrap;html=1;labelBackgroundColor=#FFFFFF;strokeColor=#787373;strokeWidth=2;fontSize=15;fontColor=#000000;fillColor=#FFFFFF;" parent="1" vertex="1">
                    <mxGeometry x="-135" y="-300" width="772" height="1249" as="geometry"/>
                </mxCell>
                <mxCell id="31" value="" style="edgeStyle=orthogonalEdgeStyle;html=1;strokeColor=#A50040;fontSize=15;fontColor=#313030;strokeWidth=3;fillColor=#d80073;" parent="1" target="6" edge="1">
                    <mxGeometry relative="1" as="geometry">
                        <mxPoint x="90" y="170.00000000000023" as="sourcePoint"/>
                        <Array as="points">
                            <mxPoint x="90" y="130"/>
                            <mxPoint x="90" y="130"/>
                        </Array>
                    </mxGeometry>
                </mxCell>
                <mxCell id="16" value="" style="edgeStyle=none;html=1;strokeColor=#A50040;fontSize=15;fontColor=#313030;entryX=0;entryY=0.5;entryDx=0;entryDy=0;fillColor=#d80073;strokeWidth=3;" parent="1" source="6" target="17" edge="1">
                    <mxGeometry relative="1" as="geometry">
                        <mxPoint x="590" y="252.97872340425522" as="targetPoint"/>
                    </mxGeometry>
                </mxCell>
                <mxCell id="17" value="DATABASE" style="shape=datastore;whiteSpace=wrap;html=1;strokeColor=#525252;strokeWidth=2;fontSize=15;fontColor=#313030;fillColor=#FFFFFF;" parent="1" vertex="1">
                    <mxGeometry x="950" y="90" width="100" height="120" as="geometry"/>
                </mxCell>
                <mxCell id="20" value="" style="group" parent="1" vertex="1" connectable="0">
                    <mxGeometry x="30" y="-230" width="120" height="280" as="geometry"/>
                </mxCell>
                <mxCell id="6" value="" style="whiteSpace=wrap;html=1;strokeColor=#525252;strokeWidth=2;fontSize=15;fontColor=#313030;fillColor=#FFFFFF;" parent="20" vertex="1">
                    <mxGeometry y="40" width="120" height="240" as="geometry"/>
                </mxCell>
                <mxCell id="8" value="User Interface" style="text;html=1;strokeColor=none;fillColor=none;align=center;verticalAlign=middle;whiteSpace=wrap;rounded=0;strokeWidth=2;fontSize=15;fontColor=#313030;" parent="20" vertex="1">
                    <mxGeometry x="30" width="60" height="30" as="geometry"/>
                </mxCell>
                <mxCell id="10" value="PRICE" style="whiteSpace=wrap;html=1;strokeColor=#525252;strokeWidth=2;fontSize=15;fontColor=#313030;fillColor=#FFFFFF;" parent="20" vertex="1">
                    <mxGeometry x="13" y="100" width="95" height="30" as="geometry"/>
                </mxCell>
                <mxCell id="12" value="QUANTITY&lt;br&gt;AVAILABLE" style="whiteSpace=wrap;html=1;strokeColor=#525252;strokeWidth=2;fontSize=15;fontColor=#313030;fillColor=#FFFFFF;" parent="20" vertex="1">
                    <mxGeometry x="13" y="145" width="95" height="65" as="geometry"/>
                </mxCell>
                <mxCell id="14" value="NAME" style="whiteSpace=wrap;html=1;strokeColor=#525252;strokeWidth=2;fontSize=15;fontColor=#313030;fillColor=#FFFFFF;" parent="20" vertex="1">
                    <mxGeometry x="13" y="60" width="95" height="30" as="geometry"/>
                </mxCell>
                <mxCell id="9" value="Variables" style="text;html=1;strokeColor=none;fillColor=none;align=center;verticalAlign=middle;whiteSpace=wrap;rounded=0;strokeWidth=2;fontSize=15;fontColor=#313030;" parent="20" vertex="1">
                    <mxGeometry x="30" y="220" width="60" height="30" as="geometry"/>
                </mxCell>
                <mxCell id="26" value="USER MAKES REQUEST" style="rounded=0;whiteSpace=wrap;html=1;strokeColor=#525252;strokeWidth=2;fontSize=15;fontColor=#313030;fillColor=#FFFFFF;" parent="1" vertex="1">
                    <mxGeometry x="-12" y="1442" width="330" height="90" as="geometry"/>
                </mxCell>
                <mxCell id="32" value="CLOUD FUNCTION TO CHECK LOCATION,&amp;nbsp; MATCH WITH FARMERS&amp;nbsp; AND THEN SEND THESE FARMERS AND MATCHING PRODUCTS TO ADMIN&amp;nbsp;" style="shape=parallelogram;perimeter=parallelogramPerimeter;whiteSpace=wrap;html=1;fixedSize=1;strokeColor=#525252;strokeWidth=2;fontSize=15;fontColor=#313030;fillColor=#FFFFFF;" parent="1" vertex="1">
                    <mxGeometry x="1030" y="420" width="430" height="110" as="geometry"/>
                </mxCell>
                <mxCell id="59" style="edgeStyle=orthogonalEdgeStyle;rounded=1;html=1;exitX=0;exitY=0.25;exitDx=0;exitDy=0;strokeColor=#A50040;fontSize=15;fontColor=#000000;fillColor=#d80073;strokeWidth=3;" parent="1" source="36" target="42" edge="1">
                    <mxGeometry relative="1" as="geometry"/>
                </mxCell>
                <mxCell id="36" value="`" style="rounded=0;whiteSpace=wrap;html=1;strokeColor=#525252;strokeWidth=2;fontSize=15;fontColor=#313030;fillColor=#FFFFFF;" parent="1" vertex="1">
                    <mxGeometry x="370" y="350" width="240" height="430" as="geometry"/>
                </mxCell>
                <mxCell id="52" style="edgeStyle=orthogonalEdgeStyle;rounded=1;html=1;exitX=0;exitY=0.5;exitDx=0;exitDy=0;entryX=1;entryY=0.5;entryDx=0;entryDy=0;strokeColor=#A50040;fontSize=15;fontColor=#000000;fillColor=#d80073;strokeWidth=3;" parent="1" source="42" target="47" edge="1">
                    <mxGeometry relative="1" as="geometry"/>
                </mxCell>
                <mxCell id="42" value="FARMER RESPONDS TO NOTIFICATON&amp;nbsp;" style="rounded=0;whiteSpace=wrap;html=1;labelBackgroundColor=#FFFFFF;strokeColor=#787373;strokeWidth=2;fontSize=15;fontColor=#000000;fillColor=#FFFFFF;" parent="1" vertex="1">
                    <mxGeometry x="-60" y="410" width="280" height="60" as="geometry"/>
                </mxCell>
                <mxCell id="43" value="USER INTERFACE OF NOTIFICATION" style="text;html=1;strokeColor=none;fillColor=none;align=center;verticalAlign=middle;whiteSpace=wrap;rounded=0;labelBackgroundColor=#FFFFFF;strokeWidth=2;fontSize=15;fontColor=#000000;" parent="1" vertex="1">
                    <mxGeometry x="415" y="300" width="150" height="30" as="geometry"/>
                </mxCell>
                <mxCell id="44" value="ACCEPT&amp;nbsp;" style="rounded=1;whiteSpace=wrap;html=1;labelBackgroundColor=#FFFFFF;strokeColor=#787373;strokeWidth=2;fontSize=15;fontColor=#000000;fillColor=#FFFFFF;" parent="1" vertex="1">
                    <mxGeometry x="425" y="590" width="120" height="60" as="geometry"/>
                </mxCell>
                <mxCell id="45" value="DECLINE" style="rounded=1;whiteSpace=wrap;html=1;labelBackgroundColor=#FFFFFF;strokeColor=#787373;strokeWidth=2;fontSize=15;fontColor=#000000;fillColor=#FFFFFF;" parent="1" vertex="1">
                    <mxGeometry x="430" y="670" width="120" height="60" as="geometry"/>
                </mxCell>
                <mxCell id="46" value="SHOWS LIST OF REQUEST AND ASK IF AVAILABLE FOR DISPATCH" style="text;html=1;strokeColor=none;fillColor=none;align=center;verticalAlign=middle;whiteSpace=wrap;rounded=0;labelBackgroundColor=#FFFFFF;strokeWidth=2;fontSize=15;fontColor=#000000;" parent="1" vertex="1">
                    <mxGeometry x="407.5" y="430" width="165" height="90" as="geometry"/>
                </mxCell>
                <mxCell id="101" style="edgeStyle=orthogonalEdgeStyle;rounded=1;jumpStyle=arc;html=1;exitX=0.5;exitY=0;exitDx=0;exitDy=0;entryX=1;entryY=0.25;entryDx=0;entryDy=0;strokeColor=#A50040;strokeWidth=3;fontSize=14;fontColor=#1A1A1A;fillColor=#d80073;" parent="1" source="47" target="50" edge="1">
                    <mxGeometry relative="1" as="geometry"/>
                </mxCell>
                <mxCell id="47" value="" style="rhombus;whiteSpace=wrap;html=1;labelBackgroundColor=#FFFFFF;strokeColor=#787373;strokeWidth=2;fontSize=15;fontColor=#000000;fillColor=#FFFFFF;" parent="1" vertex="1">
                    <mxGeometry x="-400" y="340" width="170" height="170" as="geometry"/>
                </mxCell>
                <mxCell id="99" style="edgeStyle=orthogonalEdgeStyle;rounded=1;jumpStyle=arc;html=1;strokeColor=#A50040;strokeWidth=3;fontSize=14;fontColor=#1A1A1A;entryX=0.455;entryY=0.99;entryDx=0;entryDy=0;entryPerimeter=0;fillColor=#d80073;" parent="1" target="98" edge="1">
                    <mxGeometry relative="1" as="geometry">
                        <mxPoint x="-302" y="-438" as="targetPoint"/>
                        <mxPoint x="-315" y="342" as="sourcePoint"/>
                    </mxGeometry>
                </mxCell>
                <mxCell id="48" value="TRUE" style="text;html=1;strokeColor=none;fillColor=none;align=center;verticalAlign=middle;whiteSpace=wrap;rounded=0;labelBackgroundColor=#FFFFFF;strokeWidth=2;fontSize=15;fontColor=#000000;" parent="1" vertex="1">
                    <mxGeometry x="-345" y="360" width="60" height="30" as="geometry"/>
                </mxCell>
                <mxCell id="49" value="FALSE" style="text;html=1;strokeColor=none;fillColor=none;align=center;verticalAlign=middle;whiteSpace=wrap;rounded=0;labelBackgroundColor=#FFFFFF;strokeWidth=2;fontSize=15;fontColor=#000000;" parent="1" vertex="1">
                    <mxGeometry x="-345" y="450" width="60" height="30" as="geometry"/>
                </mxCell>
                <mxCell id="62" style="edgeStyle=orthogonalEdgeStyle;rounded=1;html=1;exitX=0.5;exitY=1;exitDx=0;exitDy=0;entryX=0;entryY=0.75;entryDx=0;entryDy=0;strokeColor=#A50040;fontSize=15;fontColor=#000000;jumpStyle=arc;strokeWidth=3;fillColor=#d80073;" parent="1" source="50" target="61" edge="1">
                    <mxGeometry relative="1" as="geometry"/>
                </mxCell>
                <mxCell id="50" value="SUSTAINABLE DISPATCH METHOD" style="rounded=1;whiteSpace=wrap;html=1;labelBackgroundColor=#FFFFFF;strokeColor=#787373;strokeWidth=2;fontSize=15;fontColor=#000000;fillColor=#FFFFFF;" parent="1" vertex="1">
                    <mxGeometry x="-870" y="250" width="310" height="80" as="geometry"/>
                </mxCell>
                <mxCell id="81" style="edgeStyle=orthogonalEdgeStyle;rounded=1;html=1;exitX=0.75;exitY=1;exitDx=0;exitDy=0;entryX=1.001;entryY=0.579;entryDx=0;entryDy=0;entryPerimeter=0;strokeColor=#2D7600;strokeWidth=3;fontColor=#1A1A1A;fillColor=#60a917;" parent="1" source="54" target="65" edge="1">
                    <mxGeometry relative="1" as="geometry"/>
                </mxCell>
                <mxCell id="97" style="edgeStyle=orthogonalEdgeStyle;rounded=1;html=1;exitX=0.5;exitY=0;exitDx=0;exitDy=0;entryX=0.465;entryY=0.995;entryDx=0;entryDy=0;entryPerimeter=0;strokeColor=#2D7600;strokeWidth=3;fontSize=14;fontColor=#1A1A1A;fillColor=#60a917;" parent="1" source="54" target="85" edge="1">
                    <mxGeometry relative="1" as="geometry"/>
                </mxCell>
                <mxCell id="126" style="edgeStyle=orthogonalEdgeStyle;rounded=1;jumpStyle=arc;html=1;exitX=0;exitY=0.75;exitDx=0;exitDy=0;entryX=0.988;entryY=0.701;entryDx=0;entryDy=0;entryPerimeter=0;strokeColor=#2D7600;strokeWidth=3;fontSize=26;fontColor=#1A1A1A;fillColor=#60a917;" parent="1" source="54" target="36" edge="1">
                    <mxGeometry relative="1" as="geometry"/>
                </mxCell>
                <mxCell id="54" value="ADMIN PAGE GETS UPDATES ON STATUS OF TRANSACTION PRICE AND QUANTITY" style="rounded=0;whiteSpace=wrap;html=1;labelBackgroundColor=#FFFFFF;strokeColor=#787373;strokeWidth=2;fontSize=15;fontColor=#000000;fillColor=#FFFFFF;" parent="1" vertex="1">
                    <mxGeometry x="1820" y="310" width="340" height="380" as="geometry"/>
                </mxCell>
                <mxCell id="61" value="USER RECEIVES PRODUCT" style="rounded=0;whiteSpace=wrap;html=1;labelBackgroundColor=#FFFFFF;strokeColor=#787373;strokeWidth=2;fontSize=15;fontColor=#000000;fillColor=#FFFFFF;" parent="1" vertex="1">
                    <mxGeometry x="-12" y="1582" width="340" height="80" as="geometry"/>
                </mxCell>
                <mxCell id="66" value="FARMER UPLOAD PRODUCTS FROM HARVEST" style="ellipse;whiteSpace=wrap;html=1;labelBackgroundColor=#FFFFFF;strokeColor=#787373;strokeWidth=2;fontSize=15;fontColor=#000000;fillColor=#FFFFFF;" parent="1" vertex="1">
                    <mxGeometry x="-72.5" y="123.33" width="325" height="216.67" as="geometry"/>
                </mxCell>
                <mxCell id="67" value="USER SECTION" style="text;html=1;strokeColor=none;fillColor=none;align=center;verticalAlign=middle;whiteSpace=wrap;rounded=0;labelBackgroundColor=#FFFFFF;strokeWidth=2;fontSize=15;fontColor=#000000;" parent="1" vertex="1">
                    <mxGeometry x="-45" y="1304" width="160" height="30" as="geometry"/>
                </mxCell>
                <mxCell id="82" style="edgeStyle=orthogonalEdgeStyle;rounded=1;html=1;exitX=0.5;exitY=0;exitDx=0;exitDy=0;entryX=0.646;entryY=1.001;entryDx=0;entryDy=0;entryPerimeter=0;strokeColor=#006EAF;strokeWidth=3;fontColor=#1A1A1A;startArrow=none;fillColor=#1ba1e2;" parent="1" target="63" edge="1">
                    <mxGeometry relative="1" as="geometry">
                        <mxPoint x="364" y="1072" as="sourcePoint"/>
                    </mxGeometry>
                </mxCell>
                <mxCell id="117" value="&lt;span style=&quot;background-color: rgb(255, 255, 255);&quot;&gt;payment successful&lt;/span&gt;" style="edgeLabel;html=1;align=center;verticalAlign=middle;resizable=0;points=[];fontSize=26;fontColor=#1A1A1A;" parent="82" vertex="1" connectable="0">
                    <mxGeometry x="-0.7354" y="3" relative="1" as="geometry">
                        <mxPoint as="offset"/>
                    </mxGeometry>
                </mxCell>
                <mxCell id="78" value="&lt;font color=&quot;#1a1a1a&quot;&gt;CLOUD FUNCTION FOR STRIPE PAYMENT&lt;/font&gt;" style="shape=parallelogram;perimeter=parallelogramPerimeter;whiteSpace=wrap;html=1;fixedSize=1;fillColor=#FFFFFF;strokeColor=#333333;" parent="1" vertex="1">
                    <mxGeometry x="172" y="1173" width="384" height="92" as="geometry"/>
                </mxCell>
                <mxCell id="84" value="" style="edgeStyle=orthogonalEdgeStyle;rounded=1;html=1;exitX=0.5;exitY=0;exitDx=0;exitDy=0;strokeColor=#006EAF;strokeWidth=3;fontColor=#1A1A1A;endArrow=none;fillColor=#1ba1e2;" parent="1" source="78" edge="1">
                    <mxGeometry relative="1" as="geometry">
                        <mxPoint x="364" y="1173" as="sourcePoint"/>
                        <mxPoint x="364" y="1071" as="targetPoint"/>
                        <Array as="points"/>
                    </mxGeometry>
                </mxCell>
                <mxCell id="92" value="" style="edgeStyle=orthogonalEdgeStyle;rounded=1;html=1;strokeColor=#B09500;strokeWidth=3;fontSize=14;fontColor=#1A1A1A;fillColor=#e3c800;" parent="1" source="85" edge="1">
                    <mxGeometry relative="1" as="geometry">
                        <mxPoint x="777.5" y="-584" as="targetPoint"/>
                    </mxGeometry>
                </mxCell>
                <mxCell id="85" value="" style="rounded=0;whiteSpace=wrap;html=1;labelBackgroundColor=#FFFFFF;strokeColor=#000000;fontColor=#1A1A1A;fillColor=#FFFFFF;" parent="1" vertex="1">
                    <mxGeometry x="1077" y="-859" width="559" height="550" as="geometry"/>
                </mxCell>
                <mxCell id="86" value="RESTAURANT SECTION" style="text;html=1;strokeColor=none;fillColor=none;align=center;verticalAlign=middle;whiteSpace=wrap;rounded=0;labelBackgroundColor=#FFFFFF;strokeWidth=2;fontSize=15;fontColor=#000000;fontStyle=1" parent="1" vertex="1">
                    <mxGeometry x="1080" y="-934" width="170" height="30" as="geometry"/>
                </mxCell>
                <mxCell id="88" style="edgeStyle=orthogonalEdgeStyle;rounded=1;html=1;exitX=0;exitY=0.5;exitDx=0;exitDy=0;strokeColor=#B09500;strokeWidth=3;fontSize=14;fontColor=#1A1A1A;jumpStyle=arc;fillColor=#e3c800;" parent="1" source="87" edge="1">
                    <mxGeometry relative="1" as="geometry">
                        <mxPoint x="972.2851715087891" y="91.09521484375" as="targetPoint"/>
                    </mxGeometry>
                </mxCell>
                <mxCell id="87" value="&lt;font style=&quot;font-size: 14px;&quot;&gt;Restaurant makes request for famr products&lt;/font&gt;" style="ellipse;whiteSpace=wrap;html=1;labelBackgroundColor=#FFFFFF;strokeColor=#000000;fontColor=#1A1A1A;fillColor=#FFFFFF;" parent="1" vertex="1">
                    <mxGeometry x="1232" y="-570" width="241.5" height="161" as="geometry"/>
                </mxCell>
                <mxCell id="96" style="edgeStyle=orthogonalEdgeStyle;rounded=1;html=1;exitX=0;exitY=0.5;exitDx=0;exitDy=0;entryX=0.541;entryY=-0.002;entryDx=0;entryDy=0;entryPerimeter=0;strokeColor=#B09500;strokeWidth=3;fontSize=14;fontColor=#1A1A1A;fillColor=#e3c800;" parent="1" source="93" target="63" edge="1">
                    <mxGeometry relative="1" as="geometry">
                        <Array as="points">
                            <mxPoint x="677" y="-580"/>
                            <mxPoint x="677" y="-423"/>
                            <mxPoint x="283" y="-423"/>
                        </Array>
                    </mxGeometry>
                </mxCell>
                <mxCell id="93" value="stripe payment function" style="shape=parallelogram;perimeter=parallelogramPerimeter;whiteSpace=wrap;html=1;fixedSize=1;labelBackgroundColor=#FFFFFF;strokeColor=#000000;fontSize=14;fontColor=#1A1A1A;fillColor=#FFFFFF;" parent="1" vertex="1">
                    <mxGeometry x="594" y="-614" width="186" height="68" as="geometry"/>
                </mxCell>
                <mxCell id="102" style="edgeStyle=orthogonalEdgeStyle;rounded=1;jumpStyle=arc;html=1;exitX=0.5;exitY=0;exitDx=0;exitDy=0;entryX=-0.004;entryY=0.128;entryDx=0;entryDy=0;entryPerimeter=0;strokeColor=#A50040;strokeWidth=3;fontSize=14;fontColor=#1A1A1A;fillColor=#d80073;" parent="1" source="98" target="85" edge="1">
                    <mxGeometry relative="1" as="geometry"/>
                </mxCell>
                <mxCell id="98" value="SUSTAINABLE DISPATCH METHOD" style="rounded=1;whiteSpace=wrap;html=1;labelBackgroundColor=#FFFFFF;strokeColor=#787373;strokeWidth=2;fontSize=15;fontColor=#000000;fillColor=#FFFFFF;" parent="1" vertex="1">
                    <mxGeometry x="-457" y="-518" width="310" height="80" as="geometry"/>
                </mxCell>
                <mxCell id="103" value="Restaurant Receive products" style="rounded=0;whiteSpace=wrap;html=1;labelBackgroundColor=#FFFFFF;strokeColor=#000000;fontSize=14;fontColor=#1A1A1A;fillColor=#FFFFFF;" parent="1" vertex="1">
                    <mxGeometry x="1077" y="-820" width="284" height="102" as="geometry"/>
                </mxCell>
                <mxCell id="105" value="" style="rounded=0;whiteSpace=wrap;html=1;labelBackgroundColor=#FFFFFF;strokeColor=#000000;fontSize=14;fontColor=#1A1A1A;fillColor=#FFFFFF;" parent="1" vertex="1">
                    <mxGeometry x="-1772" y="-929" width="643" height="1076" as="geometry"/>
                </mxCell>
                <mxCell id="106" value="&lt;font style=&quot;font-size: 26px;&quot;&gt;LEGEND&lt;/font&gt;" style="text;html=1;strokeColor=none;fillColor=none;align=center;verticalAlign=middle;whiteSpace=wrap;rounded=0;labelBackgroundColor=#FFFFFF;fontSize=14;fontColor=#1A1A1A;" parent="1" vertex="1">
                    <mxGeometry x="-1772" y="-973" width="135" height="30" as="geometry"/>
                </mxCell>
                <mxCell id="110" value="" style="shape=flexArrow;endArrow=classic;startArrow=classic;html=1;rounded=1;strokeColor=#000000;strokeWidth=1;fontSize=26;fontColor=#1A1A1A;jumpStyle=arc;exitX=1;exitY=0.75;exitDx=0;exitDy=0;fillColor=default;" parent="1" source="32" target="54" edge="1">
                    <mxGeometry width="100" height="100" relative="1" as="geometry">
                        <mxPoint x="1565" y="631" as="sourcePoint"/>
                        <mxPoint x="1665" y="531" as="targetPoint"/>
                    </mxGeometry>
                </mxCell>
                <mxCell id="111" value="" style="shape=flexArrow;endArrow=classic;startArrow=classic;html=1;rounded=1;strokeColor=#000000;strokeWidth=1;fontSize=26;fontColor=#1A1A1A;fillColor=default;jumpStyle=arc;entryX=0.5;entryY=0;entryDx=0;entryDy=0;exitX=0.5;exitY=1;exitDx=0;exitDy=0;" parent="1" source="17" target="32" edge="1">
                    <mxGeometry width="100" height="100" relative="1" as="geometry">
                        <mxPoint x="1296" y="251" as="sourcePoint"/>
                        <mxPoint x="1396" y="151" as="targetPoint"/>
                    </mxGeometry>
                </mxCell>
                <mxCell id="112" value="" style="shape=flexArrow;endArrow=classic;startArrow=classic;html=1;rounded=1;strokeColor=#000000;strokeWidth=1;fontSize=26;fontColor=#1A1A1A;fillColor=default;jumpStyle=arc;entryX=0.44;entryY=0.125;entryDx=0;entryDy=0;entryPerimeter=0;" parent="1" target="105" edge="1">
                    <mxGeometry width="100" height="100" relative="1" as="geometry">
                        <mxPoint x="-1689" y="-794" as="sourcePoint"/>
                        <mxPoint x="-1589" y="-894" as="targetPoint"/>
                    </mxGeometry>
                </mxCell>
                <mxCell id="114" value="Bidirectional data flow" style="text;html=1;strokeColor=none;fillColor=none;align=center;verticalAlign=middle;whiteSpace=wrap;rounded=0;labelBackgroundColor=#FFFFFF;fontSize=26;fontColor=#1A1A1A;" parent="1" vertex="1">
                    <mxGeometry x="-1745" y="-885" width="148" height="61" as="geometry"/>
                </mxCell>
                <mxCell id="115" value="" style="endArrow=classic;html=1;rounded=1;strokeColor=#006EAF;strokeWidth=3;fontSize=26;fontColor=#1A1A1A;fillColor=#1ba1e2;jumpStyle=arc;" parent="1" edge="1">
                    <mxGeometry width="50" height="50" relative="1" as="geometry">
                        <mxPoint x="-1674" y="-693" as="sourcePoint"/>
                        <mxPoint x="-1590" y="-693" as="targetPoint"/>
                    </mxGeometry>
                </mxCell>
                <mxCell id="118" value="User connector" style="text;html=1;strokeColor=none;fillColor=none;align=center;verticalAlign=middle;whiteSpace=wrap;rounded=0;labelBackgroundColor=#FFFFFF;fontSize=26;fontColor=#1A1A1A;" parent="1" vertex="1">
                    <mxGeometry x="-1695" y="-736" width="186" height="30" as="geometry"/>
                </mxCell>
                <mxCell id="119" value="Farmer connector" style="text;html=1;strokeColor=none;fillColor=none;align=center;verticalAlign=middle;whiteSpace=wrap;rounded=0;labelBackgroundColor=#FFFFFF;fontSize=26;fontColor=#1A1A1A;" parent="1" vertex="1">
                    <mxGeometry x="-1702" y="-653" width="224" height="30" as="geometry"/>
                </mxCell>
                <mxCell id="120" value="" style="endArrow=classic;html=1;rounded=1;strokeColor=#B20000;strokeWidth=3;fontSize=26;fontColor=#1A1A1A;fillColor=#e51400;jumpStyle=arc;" parent="1" edge="1">
                    <mxGeometry width="50" height="50" relative="1" as="geometry">
                        <mxPoint x="-1671" y="-611" as="sourcePoint"/>
                        <mxPoint x="-1587" y="-611" as="targetPoint"/>
                    </mxGeometry>
                </mxCell>
                <mxCell id="121" value="Restaurant connector" style="text;html=1;strokeColor=none;fillColor=none;align=center;verticalAlign=middle;whiteSpace=wrap;rounded=0;labelBackgroundColor=#FFFFFF;fontSize=26;fontColor=#1A1A1A;" parent="1" vertex="1">
                    <mxGeometry x="-1700" y="-570" width="270" height="30" as="geometry"/>
                </mxCell>
                <mxCell id="122" value="" style="endArrow=classic;html=1;rounded=1;strokeColor=#B09500;strokeWidth=3;fontSize=26;fontColor=#1A1A1A;fillColor=#e3c800;jumpStyle=arc;" parent="1" edge="1">
                    <mxGeometry width="50" height="50" relative="1" as="geometry">
                        <mxPoint x="-1671" y="-527" as="sourcePoint"/>
                        <mxPoint x="-1587" y="-527" as="targetPoint"/>
                    </mxGeometry>
                </mxCell>
                <mxCell id="123" value="Admin connector" style="text;html=1;strokeColor=none;fillColor=none;align=center;verticalAlign=middle;whiteSpace=wrap;rounded=0;labelBackgroundColor=#FFFFFF;fontSize=26;fontColor=#1A1A1A;" parent="1" vertex="1">
                    <mxGeometry x="-1702" y="-481.67" width="213" height="30" as="geometry"/>
                </mxCell>
                <mxCell id="124" value="" style="endArrow=classic;html=1;rounded=1;strokeColor=#2D7600;strokeWidth=3;fontSize=26;fontColor=#1A1A1A;fillColor=#60a917;jumpStyle=arc;" parent="1" edge="1">
                    <mxGeometry width="50" height="50" relative="1" as="geometry">
                        <mxPoint x="-1671" y="-438.67" as="sourcePoint"/>
                        <mxPoint x="-1587" y="-438.67" as="targetPoint"/>
                    </mxGeometry>
                </mxCell>
                <mxCell id="129" style="edgeStyle=none;html=1;exitX=0.5;exitY=1;exitDx=0;exitDy=0;entryX=0.5;entryY=0;entryDx=0;entryDy=0;fontSize=14;fontColor=#0d0c0c;strokeColor=#171717;" edge="1" parent="1" source="127" target="128">
                    <mxGeometry relative="1" as="geometry"/>
                </mxCell>
                <mxCell id="127" value="&lt;font style=&quot;font-size: 14px;&quot; color=&quot;#0d0c0c&quot;&gt;settings&lt;/font&gt;" style="rounded=0;whiteSpace=wrap;html=1;fillColor=#fcfcfd;strokeColor=#0d0c0c;" vertex="1" parent="1">
                    <mxGeometry x="-54" y="532" width="269" height="74" as="geometry"/>
                </mxCell>
                <mxCell id="128" value="&lt;font color=&quot;#050505&quot;&gt;Account details&lt;/font&gt;" style="rounded=0;whiteSpace=wrap;html=1;fillColor=#fcfcfd;strokeColor=#0d0c0c;" vertex="1" parent="1">
                    <mxGeometry x="-54" y="643" width="269" height="74" as="geometry"/>
                </mxCell>
            </root>
        </mxGraphModel>
    </diagram>
</mxfile>